<svg width="16" height="12" viewBox="0 0 16 12" fill="none" xmlns="http://www.w3.org/2000/svg">
<path d="M13.6774 0H2.32258C1.7068 0.000703327 1.11644 0.25289 0.681023 0.70123C0.245602 1.14957 0.000683059 1.75745 0 2.3915V9.6085C0 10.927 1.04206 12 2.32258 12H13.6774C14.9579 12 16 10.927 16 9.6085V2.3915C16 1.07298 14.9579 0 13.6774 0ZM12.991 1.59433L12.2787 2.1736L8.48 5.26129C8.19613 5.48981 7.80387 5.48981 7.52 5.26129L3.85548 2.27989L3.01058 1.59433H12.9915H12.991ZM13.6774 10.4057H2.32258C1.89574 10.4057 1.54839 10.048 1.54839 9.6085V2.44198L6.56 6.5155C6.98323 6.86094 7.49419 7.031 8 7.031C8.50581 7.031 9.01677 6.86094 9.44 6.5155L14.4516 2.44358V9.6085C14.4516 10.048 14.1043 10.4057 13.6774 10.4057Z" fill="#296487"/>
</svg>
