<?xml version="1.0" encoding="UTF-8"?>
<svg xmlns="http://www.w3.org/2000/svg" xmlns:xlink="http://www.w3.org/1999/xlink" width="16px" height="16px" viewBox="0 0 16 16" version="1.1">
<g id="surface1">
<path style=" stroke:none;fill-rule:nonzero;fill:rgb(0%,0%,0%);fill-opacity:1;" d="M 14.335938 12.730469 C 14.335938 13.441406 14.117188 14.007812 13.683594 14.421875 C 13.246094 14.835938 12.671875 15.042969 11.949219 15.042969 L 4.148438 15.042969 C 3.425781 15.042969 2.847656 14.835938 2.414062 14.421875 C 1.980469 14.007812 1.761719 13.441406 1.761719 12.730469 C 1.761719 12.414062 1.773438 12.105469 1.792969 11.804688 C 1.816406 11.503906 1.855469 11.179688 1.917969 10.832031 C 1.980469 10.484375 2.058594 10.160156 2.15625 9.863281 C 2.25 9.566406 2.378906 9.273438 2.539062 8.992188 C 2.699219 8.710938 2.882812 8.46875 3.09375 8.269531 C 3.300781 8.070312 3.554688 7.910156 3.855469 7.792969 C 4.15625 7.671875 4.488281 7.613281 4.851562 7.613281 C 4.90625 7.613281 5.03125 7.675781 5.226562 7.804688 C 5.421875 7.933594 5.644531 8.074219 5.890625 8.234375 C 6.140625 8.390625 6.460938 8.535156 6.855469 8.660156 C 7.253906 8.789062 7.648438 8.855469 8.046875 8.855469 C 8.445312 8.855469 8.84375 8.789062 9.242188 8.660156 C 9.636719 8.535156 9.957031 8.390625 10.203125 8.234375 C 10.453125 8.074219 10.671875 7.933594 10.871094 7.804688 C 11.066406 7.675781 11.191406 7.613281 11.246094 7.613281 C 11.609375 7.613281 11.941406 7.671875 12.242188 7.792969 C 12.539062 7.910156 12.796875 8.070312 13.003906 8.269531 C 13.210938 8.46875 13.398438 8.710938 13.558594 8.992188 C 13.71875 9.273438 13.847656 9.566406 13.941406 9.863281 C 14.035156 10.160156 14.117188 10.484375 14.179688 10.832031 C 14.242188 11.179688 14.28125 11.503906 14.304688 11.804688 C 14.324219 12.105469 14.335938 12.414062 14.335938 12.730469 Z M 11.476562 4.753906 C 11.476562 5.703125 11.140625 6.511719 10.472656 7.179688 C 9.804688 7.847656 8.996094 8.183594 8.046875 8.183594 C 7.101562 8.183594 6.292969 7.847656 5.625 7.179688 C 4.953125 6.511719 4.621094 5.703125 4.621094 4.753906 C 4.621094 3.808594 4.953125 3 5.625 2.332031 C 6.292969 1.660156 7.101562 1.328125 8.046875 1.328125 C 8.996094 1.328125 9.804688 1.660156 10.472656 2.332031 C 11.140625 3 11.476562 3.808594 11.476562 4.753906 Z M 11.476562 4.753906 "/>
</g>
</svg>
