<svg width="16" height="16" viewBox="0 0 16 16" fill="none" xmlns="http://www.w3.org/2000/svg">
<path d="M14.7173 4.13446C14.5876 3.91024 14.3791 3.74987 14.1288 3.68271C13.88 3.61648 13.6175 3.65008 13.3937 3.78015L8.95728 6.3411V1.21875C8.95728 0.68469 8.52256 0.25 7.98853 0.25C7.45447 0.25 7.01978 0.68469 7.01978 1.21875V6.32834L2.60648 3.78015C2.38272 3.65054 2.1221 3.61648 1.8714 3.68271C1.62116 3.74988 1.41208 3.91025 1.28296 4.13446C1.01569 4.59754 1.17463 5.1907 1.63724 5.45749L6.06238 8.01276L1.64814 10.5614C1.42392 10.6906 1.26355 10.8996 1.19687 11.1494C1.1297 11.3991 1.16422 11.6602 1.29337 11.8845C1.5502 12.3296 2.17175 12.4975 2.61688 12.2387L7.01978 9.6972V14.7812C7.01978 15.3153 7.45447 15.75 7.98853 15.75C8.52255 15.75 8.95728 15.3153 8.95728 14.7812V9.68396L13.3829 12.2387C13.828 12.4975 14.45 12.3296 14.7059 11.8845C14.8355 11.6602 14.8701 11.3991 14.8029 11.1494C14.7362 10.8996 14.5758 10.6906 14.3516 10.5614L9.93738 8.01276L14.3625 5.4575C14.8251 5.19071 14.984 4.59754 14.7173 4.13446Z" fill="#296487"/>
</svg>
